REM DIRINDEX 1\2\4,1\2\5,1\2\6,1\3\7,1\3\8,1\3\9,1\3\10
REM DIRNAME folder01,folder02,folder03,folder04,folder05,folder06,folder07,folder08,folder09,folder10
TITLE ""
FILE "a_76.mp3" MP3
  TRACK 01 AUDIO
    TITLE "0:"
    INDEX 01 00:00:00
  TRACK 02 AUDIO
    TITLE "6:cjc058_1999"
    INDEX 01 00:00:13
  TRACK 03 AUDIO
    TITLE "0:"
    INDEX 01 00:03:25
  TRACK 04 AUDIO
    TITLE "4:cjc058_2000"
    INDEX 01 00:03:66
  TRACK 05 AUDIO
    TITLE "0:"
    INDEX 01 00:05:36
  TRACK 06 AUDIO
    TITLE "5:cjc058_2001"
    INDEX 01 00:05:65
  TRACK 07 AUDIO
    TITLE "0:"
    INDEX 01 00:07:45
  TRACK 08 AUDIO
    TITLE "4:cjc058_2002"
    INDEX 01 00:08:50
  TRACK 09 AUDIO
    TITLE "0:"
    INDEX 01 00:10:04
  TRACK 10 AUDIO
    TITLE "5:cjc058_2003"
    INDEX 01 00:10:33
  TRACK 11 AUDIO
    TITLE "0:"
    INDEX 01 00:12:18
  TRACK 12 AUDIO
    TITLE "4:cjc058_2004"
    INDEX 01 00:13:24
  TRACK 13 AUDIO
    TITLE "0:"
    INDEX 01 00:15:09
  TRACK 14 AUDIO
    TITLE "5:cjc058_2005"
    INDEX 01 00:15:38
  TRACK 15 AUDIO
    TITLE "0:"
    INDEX 01 00:17:18
  TRACK 16 AUDIO
    TITLE "4:cjc058_2006"
    INDEX 01 00:18:23
  TRACK 17 AUDIO
    TITLE "0:"
    INDEX 01 00:19:52
  TRACK 18 AUDIO
    TITLE "5:cjc058_2007"
    INDEX 01 00:20:04
  TRACK 19 AUDIO
    TITLE "0:"
    INDEX 01 00:21:51
  TRACK 20 AUDIO
    TITLE "4:cjc058_2008"
    INDEX 01 00:22:56
  TRACK 21 AUDIO
    TITLE "0:"
    INDEX 01 00:24:10
  TRACK 22 AUDIO
    TITLE "5:cjc058_2009"
    INDEX 01 00:24:39
  TRACK 23 AUDIO
    TITLE "0:"
    INDEX 01 00:25:54
  TRACK 24 AUDIO
    TITLE "4:cjc058_2010"
    INDEX 01 00:26:60
  TRACK 25 AUDIO
    TITLE "0:"
    INDEX 01 00:28:10
  TRACK 26 AUDIO
    TITLE "5:cjc058_2011"
    INDEX 01 00:28:37
  TRACK 27 AUDIO
    TITLE "0:"
    INDEX 01 00:30:08
  TRACK 28 AUDIO
    TITLE "4:cjc058_2012"
    INDEX 01 00:31:10
  TRACK 29 AUDIO
    TITLE "0:"
    INDEX 01 00:32:45
  TRACK 30 AUDIO
    TITLE "5:cjc058_2013"
    INDEX 01 00:32:74
  TRACK 31 AUDIO
    TITLE "0:"
    INDEX 01 00:34:28
  TRACK 32 AUDIO
    TITLE "4:cjc058_2014"
    INDEX 01 00:35:29
  TRACK 33 AUDIO
    TITLE "0:"
    INDEX 01 00:36:60
  TRACK 34 AUDIO
    TITLE "5:cjc058_2015"
    INDEX 01 00:37:14
  TRACK 35 AUDIO
    TITLE "0:"
    INDEX 01 00:39:21
  TRACK 36 AUDIO
    TITLE "4:cjc058_2016"
    INDEX 01 00:40:24
  TRACK 37 AUDIO
    TITLE "0:"
    INDEX 01 00:41:36
  TRACK 38 AUDIO
    TITLE "5:cjc058_2017"
    INDEX 01 00:41:67
  TRACK 39 AUDIO
    TITLE "0:"
    INDEX 01 00:43:72
  TRACK 40 AUDIO
    TITLE "4:cjc058_2018"
    INDEX 01 00:45:02
  TRACK 41 AUDIO
    TITLE "0:"
    INDEX 01 00:46:19
  TRACK 42 AUDIO
    TITLE "5:cjc058_2019"
    INDEX 01 00:46:47
  TRACK 43 AUDIO
    TITLE "0:"
    INDEX 01 00:47:54
  TRACK 44 AUDIO
    TITLE "4:cjc058_2020"
    INDEX 01 00:48:53
  TRACK 45 AUDIO
    TITLE "0:"
    INDEX 01 00:50:09
  TRACK 46 AUDIO
    TITLE "5:cjc058_2021"
    INDEX 01 00:50:41
  TRACK 47 AUDIO
    TITLE "0:"
    INDEX 01 00:54:09
  TRACK 48 AUDIO
    TITLE "4:cjc058_2022"
    INDEX 01 00:55:12
  TRACK 49 AUDIO
    TITLE "0:"
    INDEX 01 00:56:39
  TRACK 50 AUDIO
    TITLE "5:cjc058_2023"
    INDEX 01 00:56:67
  TRACK 51 AUDIO
    TITLE "0:"
    INDEX 01 00:59:00
  TRACK 52 AUDIO
    TITLE "4:cjc058_2024"
    INDEX 01 01:00:04
  TRACK 53 AUDIO
    TITLE "0:"
    INDEX 01 01:01:27
  TRACK 54 AUDIO
    TITLE "5:cjc058_2025"
    INDEX 01 01:01:54
  TRACK 55 AUDIO
    TITLE "0:"
    INDEX 01 01:04:09
  TRACK 56 AUDIO
    TITLE "4:cjc058_2026"
    INDEX 01 01:05:15
  TRACK 57 AUDIO
    TITLE "0:"
    INDEX 01 01:07:17
  TRACK 58 AUDIO
    TITLE "5:cjc058_2027"
    INDEX 01 01:07:43
  TRACK 59 AUDIO
    TITLE "0:"
    INDEX 01 01:11:15
  TRACK 60 AUDIO
    TITLE "4:cjc058_2028"
    INDEX 01 01:12:19
  TRACK 61 AUDIO
    TITLE "0:"
    INDEX 01 01:13:51
  TRACK 62 AUDIO
    TITLE "5:cjc058_2029"
    INDEX 01 01:14:06
  TRACK 63 AUDIO
    TITLE "0:"
    INDEX 01 01:16:22
  TRACK 64 AUDIO
    TITLE "4:cjc058_2030"
    INDEX 01 01:17:28
  TRACK 65 AUDIO
    TITLE "0:"
    INDEX 01 01:18:70
  TRACK 66 AUDIO
    TITLE "5:cjc058_2031"
    INDEX 01 01:19:25
  TRACK 67 AUDIO
    TITLE "0:"
    INDEX 01 01:20:67
  TRACK 68 AUDIO
    TITLE "4:cjc058_2032"
    INDEX 01 01:21:72
  TRACK 69 AUDIO
    TITLE "0:"
    INDEX 01 01:23:22
  TRACK 70 AUDIO
    TITLE "5:cjc058_2033"
    INDEX 01 01:23:52
  TRACK 71 AUDIO
    TITLE "0:"
    INDEX 01 01:26:42
  TRACK 72 AUDIO
    TITLE "4:cjc058_2034"
    INDEX 01 01:27:48
  TRACK 73 AUDIO
    TITLE "0:"
    INDEX 01 01:29:15
  TRACK 74 AUDIO
    TITLE "5:cjc058_2035"
    INDEX 01 01:29:46
  TRACK 75 AUDIO
    TITLE "0:"
    INDEX 01 01:31:12
  TRACK 76 AUDIO
    TITLE "4:cjc058_2036"
    INDEX 01 01:32:15
  TRACK 77 AUDIO
    TITLE "0:"
    INDEX 01 01:34:01
  TRACK 78 AUDIO
    TITLE "5:cjc058_2037"
    INDEX 01 01:34:30
  TRACK 79 AUDIO
    TITLE "0:"
    INDEX 01 01:36:00
  TRACK 80 AUDIO
    TITLE "4:cjc058_2038"
    INDEX 01 01:37:01
  TRACK 81 AUDIO
    TITLE "0:"
    INDEX 01 01:39:00
  TRACK 82 AUDIO
    TITLE "5:cjc058_2039"
    INDEX 01 01:39:29
  TRACK 83 AUDIO
    TITLE "0:"
    INDEX 01 01:41:30
  TRACK 84 AUDIO
    TITLE "4:cjc058_2040"
    INDEX 01 01:42:30
  TRACK 85 AUDIO
    TITLE "0:"
    INDEX 01 01:43:64
  TRACK 86 AUDIO
    TITLE "5:cjc058_2041"
    INDEX 01 01:44:19
  TRACK 87 AUDIO
    TITLE "0:"
    INDEX 01 01:47:52
  TRACK 88 AUDIO
    TITLE "4:cjc058_2042"
    INDEX 01 01:48:54
  TRACK 89 AUDIO
    TITLE "0:"
    INDEX 01 01:50:00
  TRACK 90 AUDIO
    TITLE "5:cjc058_2043"
    INDEX 01 01:50:29
  TRACK 91 AUDIO
    TITLE "0:"
    INDEX 01 01:51:64
  TRACK 92 AUDIO
    TITLE "4:cjc058_2044"
    INDEX 01 01:52:71
  TRACK 93 AUDIO
    TITLE "0:"
    INDEX 01 01:54:21
  TRACK 94 AUDIO
    TITLE "5:cjc058_2045"
    INDEX 01 01:54:46
  TRACK 95 AUDIO
    TITLE "0:"
    INDEX 01 01:56:10
  TRACK 96 AUDIO
    TITLE "4:cjc058_2046"
    INDEX 01 01:57:15
  TRACK 97 AUDIO
    TITLE "0:"
    INDEX 01 01:58:42
  TRACK 98 AUDIO
    TITLE "5:cjc058_2047"
    INDEX 01 01:58:74
  TRACK 99 AUDIO
    TITLE "0:"
    INDEX 01 02:01:54
  TRACK 100 AUDIO
    TITLE "4:cjc058_2048"
    INDEX 01 02:02:58
  TRACK 101 AUDIO
    TITLE "0:"
    INDEX 01 02:04:43
  TRACK 102 AUDIO
    TITLE "5:cjc058_2049"
    INDEX 01 02:04:70
  TRACK 103 AUDIO
    TITLE "0:"
    INDEX 01 02:07:16
  TRACK 104 AUDIO
    TITLE "4:cjc058_2050"
    INDEX 01 02:08:19
  TRACK 105 AUDIO
    TITLE "0:"
    INDEX 01 02:10:00
  TRACK 106 AUDIO
    TITLE "5:cjc058_2051"
    INDEX 01 02:10:30
  TRACK 107 AUDIO
    TITLE "0:"
    INDEX 01 02:11:72
  TRACK 108 AUDIO
    TITLE "4:cjc058_2052"
    INDEX 01 02:13:03
  TRACK 109 AUDIO
    TITLE "0:"
    INDEX 01 02:14:45
  TRACK 110 AUDIO
    TITLE "5:cjc058_2053"
    INDEX 01 02:15:00
  TRACK 111 AUDIO
    TITLE "0:"
    INDEX 01 02:16:30
  TRACK 112 AUDIO
    TITLE "4:cjc058_2054"
    INDEX 01 02:17:36
  TRACK 113 AUDIO
    TITLE "0:"
    INDEX 01 02:18:49
  TRACK 114 AUDIO
    TITLE "5:cjc058_2055"
    INDEX 01 02:19:01
  TRACK 115 AUDIO
    TITLE "0:"
    INDEX 01 02:21:35
  TRACK 116 AUDIO
    TITLE "4:cjc058_2056"
    INDEX 01 02:22:39
  TRACK 117 AUDIO
    TITLE "0:"
    INDEX 01 02:23:72
  TRACK 118 AUDIO
    TITLE "5:cjc058_2057"
    INDEX 01 02:24:26
  TRACK 119 AUDIO
    TITLE "0:"
    INDEX 01 02:26:15
  TRACK 120 AUDIO
    TITLE "4:cjc058_2058"
    INDEX 01 02:27:20
  TRACK 121 AUDIO
    TITLE "0:"
    INDEX 01 02:28:51
  TRACK 122 AUDIO
    TITLE "5:cjc058_2059"
    INDEX 01 02:29:08
  TRACK 123 AUDIO
    TITLE "0:"
    INDEX 01 02:30:48
  TRACK 124 AUDIO
    TITLE "4:cjc058_2060"
    INDEX 01 02:31:55
  TRACK 125 AUDIO
    TITLE "0:"
    INDEX 01 02:33:54
  TRACK 126 AUDIO
    TITLE "5:cjc058_2061"
    INDEX 01 02:34:11
  TRACK 127 AUDIO
    TITLE "0:"
    INDEX 01 02:36:19
  TRACK 128 AUDIO
    TITLE "4:cjc058_2062"
    INDEX 01 02:37:23
  TRACK 129 AUDIO
    TITLE "0:"
    INDEX 01 02:39:33
  TRACK 130 AUDIO
    TITLE "5:cjc058_2063"
    INDEX 01 02:39:63
  TRACK 131 AUDIO
    TITLE "0:"
    INDEX 01 02:42:55
  TRACK 132 AUDIO
    TITLE "4:cjc058_2064"
    INDEX 01 02:43:61
  TRACK 133 AUDIO
    TITLE "0:"
    INDEX 01 02:45:10
  TRACK 134 AUDIO
    TITLE "5:cjc058_2065"
    INDEX 01 02:45:38
  TRACK 135 AUDIO
    TITLE "0:"
    INDEX 01 02:46:63
  TRACK 136 AUDIO
    TITLE "4:cjc058_2066"
    INDEX 01 02:47:70
  TRACK 137 AUDIO
    TITLE "0:"
    INDEX 01 02:49:34
  TRACK 138 AUDIO
    TITLE "5:cjc058_2067"
    INDEX 01 02:49:61
  TRACK 139 AUDIO
    TITLE "0:"
    INDEX 01 02:52:22
  TRACK 140 AUDIO
    TITLE "4:cjc058_2068"
    INDEX 01 02:53:26
  TRACK 141 AUDIO
    TITLE "0:"
    INDEX 01 02:54:64
  TRACK 142 AUDIO
    TITLE "5:cjc058_2069"
    INDEX 01 02:55:19
  TRACK 143 AUDIO
    TITLE "0:"
    INDEX 01 02:57:37
  TRACK 144 AUDIO
    TITLE "4:cjc058_2070"
    INDEX 01 02:58:37
  TRACK 145 AUDIO
    TITLE "0:"
    INDEX 01 03:00:18
  TRACK 146 AUDIO
    TITLE "5:cjc058_2071"
    INDEX 01 03:00:47
  TRACK 147 AUDIO
    TITLE "0:"
    INDEX 01 03:02:03
  TRACK 148 AUDIO
    TITLE "4:cjc058_2072"
    INDEX 01 03:03:04
  TRACK 149 AUDIO
    TITLE "0:"
    INDEX 01 03:04:45
  TRACK 150 AUDIO
    TITLE "5:cjc058_2073"
    INDEX 01 03:05:01
  TRACK 151 AUDIO
    TITLE "0:"
    INDEX 01 03:07:00
  TRACK 152 AUDIO
    TITLE "4:cjc058_2074"
    INDEX 01 03:08:04
  TRACK 153 AUDIO
    TITLE "0:"
    INDEX 01 03:10:12
  TRACK 154 AUDIO
    TITLE "5:cjc058_2075"
    INDEX 01 03:10:44
  TRACK 155 AUDIO
    TITLE "0:"
    INDEX 01 03:12:47
  TRACK 156 AUDIO
    TITLE "4:cjc058_2076"
    INDEX 01 03:13:50
  TRACK 157 AUDIO
    TITLE "0:"
    INDEX 01 03:15:39
  TRACK 158 AUDIO
    TITLE "5:cjc058_2077"
    INDEX 01 03:15:68
  TRACK 159 AUDIO
    TITLE "0:"
    INDEX 01 03:17:36
  TRACK 160 AUDIO
    TITLE "4:cjc058_2078"
    INDEX 01 03:18:41
  TRACK 161 AUDIO
    TITLE "0:"
    INDEX 01 03:20:36
  TRACK 162 AUDIO
    TITLE "5:cjc058_2079"
    INDEX 01 03:20:66
  TRACK 163 AUDIO
    TITLE "0:"
    INDEX 01 03:23:15
  TRACK 164 AUDIO
    TITLE "4:cjc058_2080"
    INDEX 01 03:24:20
  TRACK 165 AUDIO
    TITLE "0:"
    INDEX 01 03:25:61
  TRACK 166 AUDIO
    TITLE "5:cjc058_2081"
    INDEX 01 03:26:13
  TRACK 167 AUDIO
    TITLE "0:"
    INDEX 01 03:29:39
  TRACK 168 AUDIO
    TITLE "4:cjc058_2082"
    INDEX 01 03:30:42
  TRACK 169 AUDIO
    TITLE "0:"
    INDEX 01 03:32:51
  TRACK 170 AUDIO
    TITLE "5:cjc058_2083"
    INDEX 01 03:33:06
  TRACK 171 AUDIO
    TITLE "0:"
    INDEX 01 03:37:21
